<?xml version="1.0" encoding="utf-8" ?><svg xmlns="http://www.w3.org/2000/svg" xmlns:xlink="http://www.w3.org/1999/xlink" width="438" height="336" viewBox="0 0 438 336"><clipPath id="cl_3"><rect width="438" height="336"/></clipPath><g clip-path="url(#cl_3)"><path fill="#BB080F" transform="scale(0.328336 0.328125)" d="M380.647 253.499C413.277 222.704 457.571 207.423 502.251 211.545C546.93 215.667 587.681 238.796 614.124 275.042C615.263 276.602 616.372 278.183 617.451 279.782C663.489 348.064 648.615 440.357 583.455 490.722C518.296 541.086 425.225 532.233 370.734 470.484C316.243 408.734 319.042 315.294 377.133 256.919C378.287 255.761 379.458 254.62 380.647 253.499ZM409.64 261.694C397.618 270.829 387.821 289.658 382.134 303.367C349.616 381.773 388.039 495.291 479.891 507.948C505.01 511.409 528.637 503.844 549.851 490.757C613.751 442.702 619.695 358.997 585.601 290.945C541.028 297.772 495.01 281.98 452.496 270.51C438.442 266.719 423.93 264.459 409.64 261.694ZM414.243 256.81C456.813 259.505 487.123 275.067 523.997 280.186C544.26 284.59 560.582 286.593 581.307 283.8C552.998 240.541 529.049 224.659 477.237 226.072C450.225 231.306 434.706 237.752 414.243 256.81Z"/><path fill="#BB080F" transform="scale(0.328336 0.328125)" d="M86.0354 196.392C87.7943 188.701 90.5454 183.678 95.6852 177.768C105.932 165.984 110.125 157.793 113.414 143.02C118.349 120.849 112.153 75.5036 127.686 58.9549C150.594 34.5452 203.983 64.3137 222.211 83.3853C249.876 110.604 250.837 138.68 251.042 173.615C275.297 166.651 288.181 159.96 308.982 144.83C316.631 139.266 331.52 125.11 339.218 122.546C343.929 122.276 342.141 121.51 345.174 123.803C350.987 139.409 338.963 170.673 332.873 185.09C322.595 209.411 290.418 250.707 268.071 263.641L264.04 267.852L264.332 269.466C295.245 256.484 347.933 245.558 380.647 253.499C379.458 254.62 378.287 255.761 377.133 256.919C342.158 255.331 311.197 257.156 277.812 269.398C270.346 272.134 248.749 277.766 249.65 287.831C250.427 296.492 231.919 302.783 227.252 301.401L226.694 299.841C228.48 298.638 228.584 298.628 230.166 297.163C230.359 293.716 230.846 293.263 229.522 290.377C225.397 288.703 219.843 289.841 215.153 290.294C219.249 293.076 221.128 294.363 224.766 297.648C219.746 302.079 218.988 304.428 215.188 309.329C203.682 324.168 177.971 341.295 159.335 343.841C147.058 345.519 138.394 341.496 129.32 334.24C90.9183 359.109 54.0657 384.635 5.99515 384.327C-0.290253 384.287 -14.5163 384.319 -18.8854 379.896C-15.8173 378.804 10.4368 379.685 16.5253 378.983C57.747 374.229 91.5191 353.794 124.647 330.546C99.7787 325.241 77.8068 309.838 84.1606 281.244C86.862 269.294 94.3842 258.991 104.943 252.776C118.44 244.903 131.135 246.154 145.39 249.819L132.26 241.904C113.965 230.792 91.285 217.937 86.0354 196.392ZM246.911 199.164L246.816 180.921L245.441 181.53C194.555 204.465 239.4 253.462 236.474 268.65C232.609 265.373 227.72 256.654 225.766 251.94C211.932 218.546 209.529 190.53 246.932 175.086C246.298 151.813 246.692 133.845 236.481 112.205C222.642 82.8799 181.833 54.2983 148.962 55.479C142.123 56.2289 134.899 57.072 130.837 63.6218C114.168 90.4883 126.718 129.444 114.239 159.399C108.169 173.971 92.0909 187.576 92.8055 199.448C93.4125 209.577 119.872 228.027 128.013 233.079C138.581 239.528 149.569 245.263 160.901 250.249C170.975 254.61 213.487 267.397 226.468 271.989C227.278 272.277 229.025 270.174 229.806 269.302C234.034 270.576 238.155 273.273 240.839 272.124C244.844 261.18 246.824 212.212 246.911 199.164ZM246.858 274.243C254.347 269.4 258.123 266.454 264.823 260.716C303.695 232.245 342.147 177.252 341.832 127.455C335.744 129.694 332.748 131.88 327.77 135.869C304.45 154.551 280.895 172.844 250.785 178.304C254.249 201.115 250.027 249.572 246.858 274.243ZM230.193 278.5C230.846 275.577 231.863 273.804 230.862 271.691C229.352 273.336 227.819 275.782 226.238 275.455C208.025 271.685 181.594 262.088 164.383 256.909C179.417 267.2 198.296 278.802 214.996 286.336C220.297 283.411 224.66 280.989 230.193 278.5ZM128.641 326.397C135.682 321.72 140.683 318.94 148.195 314.971C168.458 302.884 182.81 294.926 206.042 288.515L204.913 287.939C189.742 280.086 146.18 250.519 131.987 252.223C127.038 252.54 121.179 252.656 116.36 254.073C89.319 262.021 77.2392 295.779 101.393 314.652C110.002 321.378 118.107 323.626 128.641 326.397ZM208.783 293.151C188.655 300.477 149.548 316.771 135.289 331.447C138.639 333.707 141.746 336.183 145.614 337.212C174.785 342.693 201.596 317.409 219.218 297.184C215.932 295.446 212.298 292.983 208.783 293.151Z"/><path fill="#E04141" fill-opacity="0.93725491" transform="scale(0.328336 0.328125)" d="M190.355 160.119C187.349 152.766 164.48 101.119 164.901 98.9273C170.934 107.779 188.29 148.401 192.315 159.612L190.355 160.119Z"/><path fill="#E04141" fill-opacity="0.58039218" transform="scale(0.328336 0.328125)" d="M170.424 217.535C175.62 217.848 202.686 232.133 204.729 236.019C200.855 236.391 176.127 220.742 170.424 217.535Z"/><path fill="#E04141" fill-opacity="0.82352942" transform="scale(0.328336 0.328125)" d="M190.355 160.119L192.315 159.612C195.528 165.437 199.895 177.068 202.396 183.332L201.799 183.22C196.498 174.686 194.343 169.478 190.355 160.119Z"/><path fill="#E04141" fill-opacity="0.82745099" transform="scale(0.328336 0.328125)" d="M288.914 191.375C290.339 201.254 277.839 224.638 271.806 232.425C271.235 229.666 275.589 222.828 277.097 219.708C281.599 210.401 285.285 201.038 288.914 191.375Z"/><path fill="#BB080F" transform="scale(0.328336 0.328125)" d="M960.91 226.134C968.569 228.201 991.945 227.464 1001.6 227.741C1007.05 243.165 1015.74 259.527 1022.87 274.386C1036.45 302.814 1050.19 331.166 1064.08 359.439L1107.88 450.499C1115.69 466.933 1129.3 500.615 1141.14 512.538C1130.67 511.703 1108.68 512.499 1097.41 512.521C1089.64 487.896 1072.5 462.169 1062.61 438.033C1060.29 432.374 1057.71 426.518 1054.65 421.215L1053.32 421.157C1050.79 437.942 1048.38 445.958 1041.81 462.151C1010.78 530.997 909.019 536.376 879.26 462.333C851.143 392.374 980.033 279.488 960.91 226.134ZM984.121 481.885C1020.05 471.559 1038.36 443.143 1049.09 409.451C1028.88 371.565 1011.32 330.573 991.808 292.206C986.942 282.636 975.405 255.83 970.622 248.489L970.379 249.893C959.528 309.563 904.683 359.845 906.388 424.461C907.627 471.433 940.434 493.007 984.121 481.885Z"/><path fill="#BB080F" transform="scale(0.328336 0.328125)" d="M662.433 768.536C665.161 716.06 660.684 659.891 662.642 607.088C663.166 592.951 663.512 569.716 657.305 557.237C672.217 557.42 687.131 557.469 702.043 557.38C695.554 571.505 697.222 590.83 697.336 606.554C697.52 638.589 694.636 819.06 700.008 832.356C700.116 832.624 700.236 832.887 700.35 833.152L699.555 834.556C691.792 835.774 669.659 835.149 660.726 835.078C663.887 813.921 663.276 803.435 662.957 781.905C649.744 798.913 642.847 806.764 625.062 818.279C564.359 857.582 485.661 838.813 483.152 757.719C482.545 738.084 482.895 717.759 482.949 698.13L483.123 603.863C483.146 589.684 485.224 568.945 477.472 557.084C494.099 557.596 509.586 557.413 526.24 557.13C518.971 571.139 520.958 599.671 520.918 615.695C520.753 637.549 520.707 659.402 520.784 681.256C520.837 704.158 518.362 754.346 522.839 775.071C539.215 850.9 635.257 813.268 662.433 768.536Z"/><path fill="#BB080F" transform="scale(0.328336 0.328125)" d="M1076.88 555.589C1110.2 552.024 1151.28 560.647 1175.24 585.361C1187.91 598.424 1196.24 623.48 1182.39 638.367C1176.24 644.979 1161.72 653.449 1152.75 647.635C1152.75 647.628 1152.78 621.864 1151.88 619.246C1137.98 557.759 1063.15 555.897 1021.59 590.038C992.242 614.158 981.03 645.632 976.596 682.656C999.882 654.054 1029.45 656.27 1061.57 667.199C1095.93 678.886 1111.63 694.805 1144.19 668.374C1143.46 683.1 1142.21 694.596 1131.47 706.474C1125.97 712.57 1118.22 715.43 1110.21 716.646C1068.8 722.941 1038.62 682.389 998.067 683.545C991.779 683.725 985.457 685.341 981.183 690.26C974.376 698.097 975.94 707.286 976.313 716.984C989.936 798.259 1049.38 848.47 1133.15 822.076C1160.64 813.415 1177.13 799.083 1196.98 779.017C1197.14 787.783 1197.43 796.546 1197.86 805.304C1146.75 852.538 1040.43 853.744 988.72 809.343C885.757 720.938 947.467 569.469 1076.88 555.589Z"/><path fill="#BB080F" transform="scale(0.328336 0.328125)" d="M835.811 677.097C857.093 648.884 888.348 602.365 901.012 568.873C901.632 567.232 901.418 561.797 901.288 559.787L901.165 558.064C904.232 557.119 937.535 557.2 943.031 557.125C935.801 563.334 922.265 580.761 915.717 588.86C890.258 620.571 865.674 652.975 841.993 686.035C851.425 697.631 859.337 711.321 868.091 723.294C891.934 755.906 918.876 799.872 945.263 829.718L951.591 834.877L903.343 835.18C875.844 794.81 847.367 756.07 820.319 715.095C794.299 754.926 768.65 789.018 753.716 834.973C748.682 834.892 722.84 836.073 720.563 833.616C725.958 829.819 752.794 790.137 758.835 781.94C777.326 756.915 796.069 732.074 815.062 707.426C798.48 683.394 782.319 659.077 766.585 634.483C749.993 608.599 733.71 582.126 715.517 557.378C729.152 557.631 755.978 556.359 767.805 557.65L768.685 559.019C767.515 561.109 766.579 563.002 765.518 565.144C765.195 571.505 827.953 665.093 835.811 677.097Z"/><path fill="#BB080F" transform="scale(0.328336 0.328125)" d="M281.179 556.316C292.463 557.213 317.375 556.222 329.715 555.968L329.233 557.186C321.35 576.502 324.422 633.379 324.431 657.424L324.447 823.252C366.398 824.253 440.656 812.143 479.104 796.56L479.123 806.611C478.81 815.822 478.982 825.558 478.996 834.815C416.101 836.568 343.573 835.178 280.578 834.842C288.328 819.897 286.117 801.853 286.126 785.219L286.144 721.974L286.12 627.02C286.113 610.459 288.388 568.931 281.179 556.316Z"/><path fill="#BB080F" transform="scale(0.328336 0.328125)" d="M664.579 227.644C672.474 227.816 706.973 226.186 711.197 228.918C709.834 231.399 708.575 233.34 708.432 236.215C706.967 265.437 707.657 296.341 707.678 325.645L707.669 502.253C717.296 501.162 727.302 501.077 737.029 500.292C757.236 498.622 777.335 495.83 797.231 491.929C810.274 489.268 823.706 485.274 836.569 481.767C841.767 480.35 855.595 474.716 859.861 474.463C861.73 477.748 861.015 478.72 861.058 483.132C861.058 493.613 860.942 502.251 860.223 512.782C796.064 511.687 729.962 512.552 665.544 512.323C673.16 496.698 670.643 459.971 670.62 441.656L670.626 348.263L670.643 277.946C670.643 265.203 670.958 251.474 669.901 238.782C669.468 233.591 667.896 231.515 664.579 227.644Z"/><path transform="scale(0.328336 0.328125)" d="M321.717 910.762C322.27 910.7 322.821 910.638 323.374 910.578C366.976 910.238 410.607 910.52 454.207 910.491C456.734 910.489 458.678 910.917 460.519 912.593L459.929 914.509L365.915 914.499C358.549 914.47 326.943 914.522 322.112 913.126L321.717 910.762Z"/><path transform="scale(0.328336 0.328125)" d="M956.733 910.652C976.217 911.756 1079.5 907.707 1089.64 911.703L1089.34 914.039C1076.06 914.37 960.185 915.611 957.083 913.316L956.733 910.652Z"/><path transform="scale(0.328336 0.328125)" d="M624.06 892.678C625.887 894.39 625.458 893.692 626.239 895.937C624.3 902.632 618.742 927.855 612.373 929.339C609.427 926.385 604.329 902.385 603.403 897.265C601.505 908.647 595.632 921.333 592.751 934.851C588.883 925.585 585.345 913.685 582.674 904.005C581.477 900.651 580.907 898.835 580.037 895.392L580.847 894.35L583.94 895.916C586.776 902.006 590.557 917.208 592.674 924.375C594.605 917.295 598.143 898.76 603.335 895.156C608.852 898.526 609.668 914.551 613.641 922.948L612.539 920.365L614.13 923.033L614.953 921.422L612.906 921.15L615.197 920.34C616.786 911.568 619.17 900.171 624.06 892.678Z"/><path transform="scale(0.328336 0.328125)" d="M856.548 893.056L858.856 894.665C861.278 900.107 860.128 929.388 858.848 936.158C851.27 924.355 845.115 910.004 835.163 899.11C835.287 905.641 836.48 927.603 833.342 931.406C831.239 928.479 831.355 897.149 832.803 894.787L834.788 894.779C841.91 899.295 854.595 920.168 857.769 928.5C856.447 915.725 855.051 906.043 856.548 893.056Z"/><path transform="scale(0.328336 0.328125)" d="M904.42 893.88C905.137 893.967 905.854 894.06 906.568 894.166C910.204 894.706 913.597 895.154 915.837 898.118C914.387 901.314 900.134 897.408 895.947 901.571C885.518 911.945 899.11 937.365 913.929 922.677C915.021 919.05 915.091 920.817 913.513 917.206C909.564 914.789 909.893 915.649 904.41 915.647L904.654 914.555C907.726 913.144 913.202 913.755 916.808 913.855L917.101 918.743C917.983 933.204 905.207 934.909 896.173 927.371C881.675 915.274 886.403 897.849 904.42 893.88Z"/><path transform="scale(0.328336 0.328125)" d="M653.433 894.226C657.403 894.458 669.586 894.035 671.782 896.944C667.146 898.686 661.824 898.182 656.736 898.157L656.982 910.727L670.705 912.274C664.689 914.319 660.987 913.277 657.552 915.083L657.222 917.455L656.531 925.275C660.937 928.771 669.354 923.574 674.595 928.591L674.117 929.927C667.9 930.49 659.42 930.277 653.013 930.285C653.57 924.289 652.215 896.308 653.433 894.226Z"/><path transform="scale(0.328336 0.328125)" d="M533.491 894.729C536.909 894.696 550.707 893.903 552.362 896.921C547.361 898.621 543.174 898.139 537.852 898.081L537.889 910.795C541.836 910.679 546.018 910.907 549.981 911.044L551.187 912.469C548.386 914.302 543.064 914.342 539.507 914.685L537.989 915.8C537.806 920.324 537.607 921.985 538.357 926.372C545.067 926.422 548.148 926.7 554.578 928.406L554.81 929.258C547.901 930.35 540.91 930.136 533.905 930.165C535.028 923.501 535.175 901.277 533.491 894.729Z"/><path transform="scale(0.328336 0.328125)" d="M754.596 894.945C759.473 894.76 768.238 893.25 770.115 898.522C766.322 902.692 757.414 892.563 753.728 902.046C756.685 914.296 785.913 916.024 764.434 930.184C759.032 930.176 753.774 930.911 750.132 927.346L750.474 925.575C754.145 924.552 767.248 930.337 768.545 921.024C762.906 913.67 738.259 908.444 754.596 894.945Z"/><path transform="scale(0.328336 0.328125)" d="M705.857 893.532C706.389 894.193 706.923 894.856 707.456 895.516C707.284 902.164 706.853 920.807 706.727 926.232C712.233 926.321 717.787 925.668 723.111 926.828L723.648 928.491L722.206 930.057C715.734 930.018 709.063 930.165 702.573 930.225C703.82 920.266 701.102 899.456 705.857 893.532Z"/><path transform="scale(0.328336 0.328125)" d="M499.276 894.603L503.092 895.23C504.54 902.311 504.594 926.787 500.357 933.62C497.857 937.656 495.296 937.802 490.964 938.888C487.793 936.742 488.431 938.088 487.753 935.28C490.533 934.652 496.067 933.645 497.337 931.454C501.302 924.605 499.543 902.381 499.276 894.603Z"/><path fill="#BB080F" transform="scale(0.328336 0.328125)" d="M614.124 275.042C619.324 271.27 624.988 266.61 631.232 265.572L633.123 266.32C633.16 272.985 622.846 277.766 617.451 279.782C616.372 278.183 615.263 276.602 614.124 275.042Z"/></g></svg>